<mxfile host="app.diagrams.net" modified="2024-01-06T08:33:38.108Z" agent="Mozilla/5.0 (Macintosh; Intel Mac OS X 10_15_7) AppleWebKit/537.36 (KHTML, like Gecko) Chrome/118.0.0.0 Safari/537.36" etag="MTN5M3NLGF0NAyY8_Gj-" version="22.1.16" type="device">
  <diagram id="9G5ByT5UZSLq8lmokPxg" name="Sivu-1">
    <mxGraphModel dx="1242" dy="704" grid="1" gridSize="10" guides="1" tooltips="1" connect="1" arrows="1" fold="1" page="1" pageScale="1" pageWidth="827" pageHeight="1169" math="0" shadow="0">
      <root>
        <mxCell id="0" />
        <mxCell id="1" parent="0" />
        <mxCell id="rdrYYIo-Ugrr2tcoidG8-1" value="InputMessage" style="swimlane;fontStyle=0;childLayout=stackLayout;horizontal=1;startSize=26;fillColor=none;horizontalStack=0;resizeParent=1;resizeParentMax=0;resizeLast=0;collapsible=1;marginBottom=0;" parent="1" vertex="1">
          <mxGeometry x="318" y="110" width="140" height="52" as="geometry" />
        </mxCell>
        <mxCell id="rdrYYIo-Ugrr2tcoidG8-5" value="KafkaInputMessage" style="swimlane;fontStyle=0;childLayout=stackLayout;horizontal=1;startSize=26;fillColor=none;horizontalStack=0;resizeParent=1;resizeParentMax=0;resizeLast=0;collapsible=1;marginBottom=0;" parent="1" vertex="1">
          <mxGeometry x="318" y="200" width="140" height="52" as="geometry" />
        </mxCell>
        <mxCell id="rdrYYIo-Ugrr2tcoidG8-6" value="InputMessageConsumer" style="swimlane;fontStyle=0;childLayout=stackLayout;horizontal=1;startSize=26;fillColor=none;horizontalStack=0;resizeParent=1;resizeParentMax=0;resizeLast=0;collapsible=1;marginBottom=0;" parent="1" vertex="1">
          <mxGeometry x="80" y="110" width="170" height="52" as="geometry" />
        </mxCell>
        <mxCell id="rdrYYIo-Ugrr2tcoidG8-43" value="+consume_input_msg()" style="text;strokeColor=none;fillColor=none;align=left;verticalAlign=top;spacingLeft=4;spacingRight=4;overflow=hidden;rotatable=0;points=[[0,0.5],[1,0.5]];portConstraint=eastwest;" parent="rdrYYIo-Ugrr2tcoidG8-6" vertex="1">
          <mxGeometry y="26" width="170" height="26" as="geometry" />
        </mxCell>
        <mxCell id="rdrYYIo-Ugrr2tcoidG8-33" value="creates" style="edgeStyle=orthogonalEdgeStyle;rounded=0;orthogonalLoop=1;jettySize=auto;html=1;exitX=1;exitY=0.5;exitDx=0;exitDy=0;entryX=0;entryY=0.5;entryDx=0;entryDy=0;" parent="1" edge="1">
          <mxGeometry x="-0.1176" y="16" relative="1" as="geometry">
            <mxPoint x="251" y="226" as="sourcePoint" />
            <mxPoint x="319" y="226" as="targetPoint" />
            <mxPoint as="offset" />
          </mxGeometry>
        </mxCell>
        <mxCell id="rdrYYIo-Ugrr2tcoidG8-7" value="KafkaInputMsgConsumer" style="swimlane;fontStyle=0;childLayout=stackLayout;horizontal=1;startSize=26;fillColor=none;horizontalStack=0;resizeParent=1;resizeParentMax=0;resizeLast=0;collapsible=1;marginBottom=0;" parent="1" vertex="1">
          <mxGeometry x="80" y="200" width="170" height="52" as="geometry" />
        </mxCell>
        <mxCell id="rdrYYIo-Ugrr2tcoidG8-44" value="+consume_input_msg()" style="text;strokeColor=none;fillColor=none;align=left;verticalAlign=top;spacingLeft=4;spacingRight=4;overflow=hidden;rotatable=0;points=[[0,0.5],[1,0.5]];portConstraint=eastwest;" parent="rdrYYIo-Ugrr2tcoidG8-7" vertex="1">
          <mxGeometry y="26" width="170" height="26" as="geometry" />
        </mxCell>
        <mxCell id="rdrYYIo-Ugrr2tcoidG8-8" value="InputMessageDecoder" style="swimlane;fontStyle=0;childLayout=stackLayout;horizontal=1;startSize=26;fillColor=none;horizontalStack=0;resizeParent=1;resizeParentMax=0;resizeLast=0;collapsible=1;marginBottom=0;" parent="1" vertex="1">
          <mxGeometry x="536" y="110" width="190" height="52" as="geometry" />
        </mxCell>
        <mxCell id="rdrYYIo-Ugrr2tcoidG8-45" value="+decode_input_msg()" style="text;strokeColor=none;fillColor=none;align=left;verticalAlign=top;spacingLeft=4;spacingRight=4;overflow=hidden;rotatable=0;points=[[0,0.5],[1,0.5]];portConstraint=eastwest;" parent="rdrYYIo-Ugrr2tcoidG8-8" vertex="1">
          <mxGeometry y="26" width="190" height="26" as="geometry" />
        </mxCell>
        <mxCell id="rdrYYIo-Ugrr2tcoidG8-34" value="decodes" style="edgeStyle=orthogonalEdgeStyle;rounded=0;orthogonalLoop=1;jettySize=auto;html=1;exitX=0;exitY=0.5;exitDx=0;exitDy=0;entryX=1;entryY=0.5;entryDx=0;entryDy=0;" parent="1" edge="1">
          <mxGeometry x="-0.0769" y="-13" relative="1" as="geometry">
            <mxPoint x="536" y="226" as="sourcePoint" />
            <mxPoint x="458" y="226" as="targetPoint" />
            <mxPoint as="offset" />
          </mxGeometry>
        </mxCell>
        <mxCell id="rdrYYIo-Ugrr2tcoidG8-9" value="AvroBinaryInputMsgDecoder" style="swimlane;fontStyle=0;childLayout=stackLayout;horizontal=1;startSize=26;fillColor=none;horizontalStack=0;resizeParent=1;resizeParentMax=0;resizeLast=0;collapsible=1;marginBottom=0;" parent="1" vertex="1">
          <mxGeometry x="536" y="200" width="190" height="52" as="geometry" />
        </mxCell>
        <mxCell id="rdrYYIo-Ugrr2tcoidG8-46" value="+decode_input_msg()" style="text;strokeColor=none;fillColor=none;align=left;verticalAlign=top;spacingLeft=4;spacingRight=4;overflow=hidden;rotatable=0;points=[[0,0.5],[1,0.5]];portConstraint=eastwest;" parent="rdrYYIo-Ugrr2tcoidG8-9" vertex="1">
          <mxGeometry y="26" width="190" height="26" as="geometry" />
        </mxCell>
        <mxCell id="rdrYYIo-Ugrr2tcoidG8-29" style="edgeStyle=orthogonalEdgeStyle;rounded=0;orthogonalLoop=1;jettySize=auto;html=1;exitX=0;exitY=0.5;exitDx=0;exitDy=0;entryX=1;entryY=0.5;entryDx=0;entryDy=0;" parent="1" source="rdrYYIo-Ugrr2tcoidG8-10" target="rdrYYIo-Ugrr2tcoidG8-11" edge="1">
          <mxGeometry relative="1" as="geometry" />
        </mxCell>
        <mxCell id="rdrYYIo-Ugrr2tcoidG8-30" value="uses" style="edgeLabel;html=1;align=center;verticalAlign=middle;resizable=0;points=[];" parent="rdrYYIo-Ugrr2tcoidG8-29" vertex="1" connectable="0">
          <mxGeometry x="-0.0909" relative="1" as="geometry">
            <mxPoint x="-2" y="-16" as="offset" />
          </mxGeometry>
        </mxCell>
        <mxCell id="rdrYYIo-Ugrr2tcoidG8-31" value="creates" style="edgeStyle=orthogonalEdgeStyle;rounded=0;orthogonalLoop=1;jettySize=auto;html=1;exitX=1;exitY=0.5;exitDx=0;exitDy=0;entryX=0;entryY=0.5;entryDx=0;entryDy=0;" parent="1" edge="1">
          <mxGeometry x="-0.1081" y="15" relative="1" as="geometry">
            <mxPoint x="447" y="335" as="sourcePoint" />
            <mxPoint x="521" y="335" as="targetPoint" />
            <mxPoint as="offset" />
          </mxGeometry>
        </mxCell>
        <mxCell id="rdrYYIo-Ugrr2tcoidG8-10" value="InputConfigReader" style="swimlane;fontStyle=0;childLayout=stackLayout;horizontal=1;startSize=26;fillColor=none;horizontalStack=0;resizeParent=1;resizeParentMax=0;resizeLast=0;collapsible=1;marginBottom=0;" parent="1" vertex="1">
          <mxGeometry x="286" y="310" width="160" height="52" as="geometry" />
        </mxCell>
        <mxCell id="rdrYYIo-Ugrr2tcoidG8-40" value="+read()" style="text;strokeColor=none;fillColor=none;align=left;verticalAlign=top;spacingLeft=4;spacingRight=4;overflow=hidden;rotatable=0;points=[[0,0.5],[1,0.5]];portConstraint=eastwest;" parent="rdrYYIo-Ugrr2tcoidG8-10" vertex="1">
          <mxGeometry y="26" width="160" height="26" as="geometry" />
        </mxCell>
        <mxCell id="rdrYYIo-Ugrr2tcoidG8-11" value="InputConfigParser" style="swimlane;fontStyle=0;childLayout=stackLayout;horizontal=1;startSize=26;fillColor=none;horizontalStack=0;resizeParent=1;resizeParentMax=0;resizeLast=0;collapsible=1;marginBottom=0;" parent="1" vertex="1">
          <mxGeometry x="80" y="310" width="140" height="52" as="geometry" />
        </mxCell>
        <mxCell id="rdrYYIo-Ugrr2tcoidG8-39" value="+parse()" style="text;strokeColor=none;fillColor=none;align=left;verticalAlign=top;spacingLeft=4;spacingRight=4;overflow=hidden;rotatable=0;points=[[0,0.5],[1,0.5]];portConstraint=eastwest;" parent="rdrYYIo-Ugrr2tcoidG8-11" vertex="1">
          <mxGeometry y="26" width="140" height="26" as="geometry" />
        </mxCell>
        <mxCell id="rdrYYIo-Ugrr2tcoidG8-12" value="InputConfig" style="swimlane;fontStyle=0;childLayout=stackLayout;horizontal=1;startSize=26;fillColor=none;horizontalStack=0;resizeParent=1;resizeParentMax=0;resizeLast=0;collapsible=1;marginBottom=0;" parent="1" vertex="1">
          <mxGeometry x="520" y="310" width="140" height="52" as="geometry" />
        </mxCell>
        <mxCell id="rdrYYIo-Ugrr2tcoidG8-13" value="JsonInputConfigParser" style="swimlane;fontStyle=0;childLayout=stackLayout;horizontal=1;startSize=26;fillColor=none;horizontalStack=0;resizeParent=1;resizeParentMax=0;resizeLast=0;collapsible=1;marginBottom=0;" parent="1" vertex="1">
          <mxGeometry x="80" y="400" width="140" height="52" as="geometry" />
        </mxCell>
        <mxCell id="rdrYYIo-Ugrr2tcoidG8-41" value="+parse()" style="text;strokeColor=none;fillColor=none;align=left;verticalAlign=top;spacingLeft=4;spacingRight=4;overflow=hidden;rotatable=0;points=[[0,0.5],[1,0.5]];portConstraint=eastwest;" parent="rdrYYIo-Ugrr2tcoidG8-13" vertex="1">
          <mxGeometry y="26" width="140" height="26" as="geometry" />
        </mxCell>
        <mxCell id="rdrYYIo-Ugrr2tcoidG8-15" value="LocalFsInputConfigReader" style="swimlane;fontStyle=0;childLayout=stackLayout;horizontal=1;startSize=26;fillColor=none;horizontalStack=0;resizeParent=1;resizeParentMax=0;resizeLast=0;collapsible=1;marginBottom=0;" parent="1" vertex="1">
          <mxGeometry x="286" y="400" width="160" height="52" as="geometry" />
        </mxCell>
        <mxCell id="rdrYYIo-Ugrr2tcoidG8-18" value="" style="endArrow=block;endSize=16;endFill=0;html=1;rounded=0;entryX=0.5;entryY=1;entryDx=0;entryDy=0;exitX=0.5;exitY=0;exitDx=0;exitDy=0;dashed=1;" parent="1" source="rdrYYIo-Ugrr2tcoidG8-5" target="rdrYYIo-Ugrr2tcoidG8-1" edge="1">
          <mxGeometry x="0.0526" y="-20" width="160" relative="1" as="geometry">
            <mxPoint x="546" y="360" as="sourcePoint" />
            <mxPoint x="706" y="360" as="targetPoint" />
            <mxPoint as="offset" />
          </mxGeometry>
        </mxCell>
        <mxCell id="rdrYYIo-Ugrr2tcoidG8-23" value="" style="endArrow=block;endSize=16;endFill=0;html=1;rounded=0;entryX=0.5;entryY=1;entryDx=0;entryDy=0;exitX=0.5;exitY=0;exitDx=0;exitDy=0;dashed=1;" parent="1" source="rdrYYIo-Ugrr2tcoidG8-7" target="rdrYYIo-Ugrr2tcoidG8-6" edge="1">
          <mxGeometry width="160" relative="1" as="geometry">
            <mxPoint x="124" y="360" as="sourcePoint" />
            <mxPoint x="284" y="360" as="targetPoint" />
          </mxGeometry>
        </mxCell>
        <mxCell id="rdrYYIo-Ugrr2tcoidG8-24" value="" style="endArrow=block;endSize=16;endFill=0;html=1;rounded=0;entryX=0.5;entryY=1;entryDx=0;entryDy=0;exitX=0.5;exitY=0;exitDx=0;exitDy=0;dashed=1;" parent="1" source="rdrYYIo-Ugrr2tcoidG8-9" target="rdrYYIo-Ugrr2tcoidG8-8" edge="1">
          <mxGeometry width="160" relative="1" as="geometry">
            <mxPoint x="330" y="360" as="sourcePoint" />
            <mxPoint x="490" y="360" as="targetPoint" />
          </mxGeometry>
        </mxCell>
        <mxCell id="rdrYYIo-Ugrr2tcoidG8-25" value="" style="endArrow=block;endSize=16;endFill=0;html=1;rounded=0;entryX=0.5;entryY=1;entryDx=0;entryDy=0;exitX=0.5;exitY=0;exitDx=0;exitDy=0;dashed=1;" parent="1" source="rdrYYIo-Ugrr2tcoidG8-13" target="rdrYYIo-Ugrr2tcoidG8-11" edge="1">
          <mxGeometry width="160" relative="1" as="geometry">
            <mxPoint x="330" y="360" as="sourcePoint" />
            <mxPoint x="490" y="360" as="targetPoint" />
          </mxGeometry>
        </mxCell>
        <mxCell id="rdrYYIo-Ugrr2tcoidG8-26" value="" style="endArrow=block;endSize=16;endFill=0;html=1;rounded=0;exitX=0.5;exitY=0;exitDx=0;exitDy=0;entryX=0.5;entryY=1;entryDx=0;entryDy=0;dashed=1;" parent="1" source="rdrYYIo-Ugrr2tcoidG8-15" target="rdrYYIo-Ugrr2tcoidG8-10" edge="1">
          <mxGeometry width="160" relative="1" as="geometry">
            <mxPoint x="330" y="360" as="sourcePoint" />
            <mxPoint x="330" y="370" as="targetPoint" />
          </mxGeometry>
        </mxCell>
        <mxCell id="0fvhHzH_cmCozwQ7f85R-1" value="+read()" style="text;strokeColor=none;fillColor=none;align=left;verticalAlign=top;spacingLeft=4;spacingRight=4;overflow=hidden;rotatable=0;points=[[0,0.5],[1,0.5]];portConstraint=eastwest;" vertex="1" parent="1">
          <mxGeometry x="286" y="426" width="160" height="26" as="geometry" />
        </mxCell>
      </root>
    </mxGraphModel>
  </diagram>
</mxfile>
